{
  "accessors": [
    {
      "bufferView": 2,
      "componentType": 5126,
      "count": 176,
      "max": [
        1.0,
        1.5000954866409302,
        0.025731965899467468
      ],
      "min": [
        -1.0,
        -1.5000954866409302,
        -0.054732464253902435
      ],
      "type": "VEC3"
    },
    {
      "bufferView": 2,
      "byteOffset": 2112,
      "componentType": 5126,
      "count": 176,
      "max": [
        0.9999669790267944,
        0.9857910871505737,
        0.9804949164390564
      ],
      "min": [
        -0.9999669790267944,
        -0.9857910871505737,
        -0.9818756580352783
      ],
      "type": "VEC3"
    },
    {
      "bufferView": 3,
      "componentType": 5126,
      "count": 176,
      "max": [
        0.07459929585456848,
        0.5133318305015564,
        0.9999194145202637,
        1.0
      ],
      "min": [
        -0.9843156933784485,
        -0.5133334994316101,
        -0.9999399185180664,
        1.0
      ],
      "type": "VEC4"
    },
    {
      "bufferView": 1,
      "componentType": 5126,
      "count": 176,
      "max": [
        0.9998911023139954,
        0.5935773849487305
      ],
      "min": [
        0.0001089228899218142,
        0.0001089228899218142
      ],
      "type": "VEC2"
    },
    {
      "bufferView": 1,
      "byteOffset": 1408,
      "componentType": 5126,
      "count": 176,
      "max": [
        0.9998911023139954,
        0.5935773849487305
      ],
      "min": [
        0.0001089228899218142,
        0.0001089228899218142
      ],
      "type": "VEC2"
    },
    {
      "bufferView": 1,
      "byteOffset": 2816,
      "componentType": 5126,
      "count": 176,
      "max": [
        0.9998911023139954,
        0.5935773849487305
      ],
      "min": [
        0.0001089228899218142,
        0.0001089228899218142
      ],
      "type": "VEC2"
    },
    {
      "bufferView": 0,
      "componentType": 5125,
      "count": 852,
      "type": "SCALAR"
    },
    {
      "bufferView": 2,
      "byteOffset": 4224,
      "componentType": 5126,
      "count": 228,
      "max": [
        0.9343207478523254,
        1.3669836521148682,
        0.19581159949302673
      ],
      "min": [
        -0.9343207478523254,
        -1.3669836521148682,
        0.0
      ],
      "type": "VEC3"
    },
    {
      "bufferView": 2,
      "byteOffset": 6960,
      "componentType": 5126,
      "count": 228,
      "max": [
        1.0,
        1.0,
        0.9994816780090332
      ],
      "min": [
        -1.0,
        -0.5238378643989563,
        -1.0
      ],
      "type": "VEC3"
    },
    {
      "bufferView": 3,
      "byteOffset": 2816,
      "componentType": 5126,
      "count": 228,
      "max": [
        0.3472495675086975,
        1.0,
        1.0,
        1.0
      ],
      "min": [
        -1.0,
        -1.0,
        -1.0,
        -1.0
      ],
      "type": "VEC4"
    },
    {
      "bufferView": 1,
      "byteOffset": 4224,
      "componentType": 5126,
      "count": 228,
      "max": [
        0.9339914321899414,
        0.998779296875
      ],
      "min": [
        0.001220703125,
        0.001220703125
      ],
      "type": "VEC2"
    },
    {
      "bufferView": 1,
      "byteOffset": 6048,
      "componentType": 5126,
      "count": 228,
      "max": [
        0.9339914321899414,
        0.998779296875
      ],
      "min": [
        0.001220703125,
        0.001220703125
      ],
      "type": "VEC2"
    },
    {
      "bufferView": 1,
      "byteOffset": 7872,
      "componentType": 5126,
      "count": 228,
      "max": [
        0.9339914321899414,
        0.998779296875
      ],
      "min": [
        0.001220703125,
        0.001220703125
      ],
      "type": "VEC2"
    },
    {
      "bufferView": 0,
      "byteOffset": 3408,
      "componentType": 5125,
      "count": 606,
      "type": "SCALAR"
    },
    {
      "bufferView": 2,
      "byteOffset": 9696,
      "componentType": 5126,
      "count": 65534,
      "max": [
        4.499886512756348,
        4.521176815032959,
        4.4294114112854
      ],
      "min": [
        -0.6923407912254333,
        -4.379161834716797,
        -0.5379359722137451
      ],
      "type": "VEC3"
    },
    {
      "bufferView": 2,
      "byteOffset": 796104,
      "componentType": 5126,
      "count": 65534,
      "max": [
        0.999971866607666,
        0.9999048709869385,
        0.9999970197677612
      ],
      "min": [
        -0.9999834299087524,
        -0.9999452829360962,
        -0.9999969005584717
      ],
      "type": "VEC3"
    },
    {
      "bufferView": 0,
      "byteOffset": 5832,
      "componentType": 5125,
      "count": 190698,
      "type": "SCALAR"
    },
    {
      "bufferView": 2,
      "byteOffset": 1582512,
      "componentType": 5126,
      "count": 65534,
      "max": [
        2.4852583408355713,
        2.3966524600982666,
        3.1350560188293457
      ],
      "min": [
        -0.3539869487285614,
        -2.1029281616210938,
        -0.25701841711997986
      ],
      "type": "VEC3"
    },
    {
      "bufferView": 2,
      "byteOffset": 2368920,
      "componentType": 5126,
      "count": 65534,
      "max": [
        1.0,
        0.9987702369689941,
        1.0
      ],
      "min": [
        -1.0,
        -1.0,
        -0.992277979850769
      ],
      "type": "VEC3"
    },
    {
      "bufferView": 0,
      "byteOffset": 768624,
      "componentType": 5125,
      "count": 65535,
      "type": "SCALAR"
    },
    {
      "bufferView": 2,
      "byteOffset": 3155328,
      "componentType": 5126,
      "count": 65533,
      "max": [
        4.16532039642334,
        3.726454019546509,
        4.132660388946533
      ],
      "min": [
        -0.6271072626113892,
        -3.766336679458618,
        -0.5007753372192383
      ],
      "type": "VEC3"
    },
    {
      "bufferView": 2,
      "byteOffset": 3941724,
      "componentType": 5126,
      "count": 65533,
      "max": [
        1.0,
        1.0,
        1.0
      ],
      "min": [
        -1.0,
        -1.0,
        -1.0
      ],
      "type": "VEC3"
    },
    {
      "bufferView": 0,
      "byteOffset": 1030764,
      "componentType": 5125,
      "count": 65535,
      "type": "SCALAR"
    },
    {
      "bufferView": 2,
      "byteOffset": 4728120,
      "componentType": 5126,
      "count": 51118,
      "max": [
        4.499886512756348,
        4.521176815032959,
        4.4294114112854
      ],
      "min": [
        -0.6923407912254333,
        -4.379161834716797,
        -0.5379359722137451
      ],
      "type": "VEC3"
    },
    {
      "bufferView": 2,
      "byteOffset": 5341536,
      "componentType": 5126,
      "count": 51118,
      "max": [
        1.0,
        1.0,
        1.0
      ],
      "min": [
        -0.9999090433120728,
        -0.9996600151062012,
        -1.0
      ],
      "type": "VEC3"
    },
    {
      "bufferView": 0,
      "byteOffset": 1292904,
      "componentType": 5125,
      "count": 52596,
      "type": "SCALAR"
    }
  ],
  "asset": {
    "extras": {
      "author": "kaede256 (https://sketchfab.com/kaede256)",
      "license": "CC-BY-4.0 (http://creativecommons.org/licenses/by/4.0/)",
      "source": "https://sketchfab.com/3d-models/book-43bab72da51b47b28379c7e094695708",
      "title": "Book"
    },
    "generator": "Sketchfab-13.84.0",
    "version": "2.0"
  },
  "bufferViews": [
    {
      "buffer": 0,
      "byteLength": 1503288,
      "name": "floatBufferViews",
      "target": 34963
    },
    {
      "buffer": 0,
      "byteLength": 9696,
      "byteOffset": 1503288,
      "byteStride": 8,
      "name": "floatBufferViews",
      "target": 34962
    },
    {
      "buffer": 0,
      "byteLength": 5954952,
      "byteOffset": 1512984,
      "byteStride": 12,
      "name": "floatBufferViews",
      "target": 34962
    },
    {
      "buffer": 0,
      "byteLength": 6464,
      "byteOffset": 7467936,
      "byteStride": 16,
      "name": "floatBufferViews",
      "target": 34962
    }
  ],
  "buffers": [
    {
      "byteLength": 7474400,
      "uri": "scene.bin"
    }
  ],
  "images": [
    {
      "uri": "textures/Book_Cover_baseColor.png"
    },
    {
      "uri": "textures/Book_Cover_metallicRoughness.png"
    },
    {
      "uri": "textures/Book_Cover_normal.png"
    },
    {
      "uri": "textures/Paper_baseColor.png"
    },
    {
      "uri": "textures/Paper_metallicRoughness.png"
    },
    {
      "uri": "textures/Paper_normal.png"
    }
  ],
  "materials": [
    {
      "doubleSided": true,
      "name": "Book_Cover",
      "normalTexture": {
        "index": 2
      },
      "pbrMetallicRoughness": {
        "baseColorTexture": {
          "index": 0
        },
        "metallicRoughnessTexture": {
          "index": 1
        }
      }
    },
    {
      "doubleSided": true,
      "name": "Paper",
      "normalTexture": {
        "index": 5
      },
      "pbrMetallicRoughness": {
        "baseColorTexture": {
          "index": 3
        },
        "metallicRoughnessTexture": {
          "index": 4
        }
      }
    },
    {
      "doubleSided": true,
      "name": "Material.001",
      "pbrMetallicRoughness": {
        "baseColorFactor": [
          0.003688522256509754,
          0.003688522256509754,
          0.003688522256509754,
          1.0
        ],
        "roughnessFactor": 0.6019065962867696
      }
    }
  ],
  "meshes": [
    {
      "name": "Cover_Book Cover_0",
      "primitives": [
        {
          "attributes": {
            "NORMAL": 1,
            "POSITION": 0,
            "TANGENT": 2,
            "TEXCOORD_0": 3,
            "TEXCOORD_1": 4,
            "TEXCOORD_2": 5
          },
          "indices": 6,
          "material": 0,
          "mode": 4
        }
      ]
    },
    {
      "name": "Paper_Paper_0",
      "primitives": [
        {
          "attributes": {
            "NORMAL": 8,
            "POSITION": 7,
            "TANGENT": 9,
            "TEXCOORD_0": 10,
            "TEXCOORD_1": 11,
            "TEXCOORD_2": 12
          },
          "indices": 13,
          "material": 1,
          "mode": 4
        }
      ]
    },
    {
      "name": "Letters_Material.001_0",
      "primitives": [
        {
          "attributes": {
            "NORMAL": 15,
            "POSITION": 14
          },
          "indices": 16,
          "material": 2,
          "mode": 4
        }
      ]
    },
    {
      "name": "Letters_Material.001_0",
      "primitives": [
        {
          "attributes": {
            "NORMAL": 18,
            "POSITION": 17
          },
          "indices": 19,
          "material": 2,
          "mode": 4
        }
      ]
    },
    {
      "name": "Letters_Material.001_0",
      "primitives": [
        {
          "attributes": {
            "NORMAL": 21,
            "POSITION": 20
          },
          "indices": 22,
          "material": 2,
          "mode": 4
        }
      ]
    },
    {
      "name": "Letters_Material.001_0",
      "primitives": [
        {
          "attributes": {
            "NORMAL": 24,
            "POSITION": 23
          },
          "indices": 25,
          "material": 2,
          "mode": 4
        }
      ]
    }
  ],
  "nodes": [
    {
      "children": [
        1
      ],
      "matrix": [
        0.40466222167015076,
        0.0,
        0.0,
        0.0,
        0.0,
        8.985306313883407e-17,
        -0.40466222167015076,
        0.0,
        0.0,
        0.40466222167015076,
        8.985306313883407e-17,
        0.0,
        0.0,
        0.0,
        0.0,
        1.0
      ],
      "name": "Sketchfab_model"
    },
    {
      "children": [
        2
      ],
      "matrix": [
        0.009999999776482582,
        0.0,
        0.0,
        0.0,
        0.0,
        0.0,
        0.009999999776482582,
        0.0,
        0.0,
        -0.009999999776482582,
        0.0,
        0.0,
        0.0,
        0.0,
        0.0,
        1.0
      ],
      "name": "2004e3d81f374886920f816ae5294004.fbx"
    },
    {
      "children": [
        3,
        7
      ],
      "name": "RootNode"
    },
    {
      "children": [
        4,
        5
      ],
      "matrix": [
        -99.99999999999241,
        1.2246465878873718e-14,
        3.8941437775530106e-05,
        0.0,
        3.894143777553e-05,
        7.549789982075339e-06,
        99.99999999999213,
        0.0,
        -2.9277502948264183e-12,
        99.9999999999997,
        -7.549789970973109e-06,
        0.0,
        0.0,
        0.0,
        0.0,
        1.0
      ],
      "name": "Cover"
    },
    {
      "mesh": 0,
      "name": "Cover_Book Cover_0"
    },
    {
      "children": [
        6
      ],
      "matrix": [
        1.0,
        0.0,
        6.310887241768095e-30,
        0.0,
        -8.35238971903811e-53,
        1.0,
        1.323488980084844e-23,
        0.0,
        -6.310887241768095e-30,
        -1.323488980084844e-23,
        1.0,
        0.0,
        0.0,
        0.0,
        0.01516074500977993,
        1.0
      ],
      "name": "Paper"
    },
    {
      "mesh": 1,
      "name": "Paper_Paper_0"
    },
    {
      "children": [
        8,
        9,
        10,
        11
      ],
      "matrix": [
        100.0,
        0.0,
        0.0,
        0.0,
        0.0,
        -1.629206793918314e-05,
        -99.99999999999868,
        0.0,
        0.0,
        99.99999999999868,
        -1.629206793918314e-05,
        0.0,
        7.479601860046387,
        13.65914535522461,
        0.0,
        1.0
      ],
      "name": "Letters"
    },
    {
      "mesh": 2,
      "name": "Letters_Material.001_0"
    },
    {
      "mesh": 3,
      "name": "Letters_Material.001_0"
    },
    {
      "mesh": 4,
      "name": "Letters_Material.001_0"
    },
    {
      "mesh": 5,
      "name": "Letters_Material.001_0"
    }
  ],
  "samplers": [
    {
      "magFilter": 9729,
      "minFilter": 9987,
      "wrapS": 10497,
      "wrapT": 10497
    }
  ],
  "scene": 0,
  "scenes": [
    {
      "name": "Sketchfab_Scene",
      "nodes": [
        0
      ]
    }
  ],
  "textures": [
    {
      "sampler": 0,
      "source": 0
    },
    {
      "sampler": 0,
      "source": 1
    },
    {
      "sampler": 0,
      "source": 2
    },
    {
      "sampler": 0,
      "source": 3
    },
    {
      "sampler": 0,
      "source": 4
    },
    {
      "sampler": 0,
      "source": 5
    }
  ]
}
